<svg width="25" height="28" viewBox="0 0 25 28" fill="none" xmlns="http://www.w3.org/2000/svg">
<g id="Group">
<path id="Vector" d="M20.7171 3.40894C16.1719 -1.13631 8.82952 -1.13631 4.34255 3.40894C-0.202723 7.95419 -0.202723 15.2382 4.34255 19.7835L12.5007 27.9999L20.6589 19.8418C25.2041 15.2965 25.2041 7.95419 20.7171 3.40894Z" fill="#B34B1E"/>
<path id="Vector_2" d="M18.0909 17.1573C15.0025 20.2457 10.0493 20.2457 6.96086 17.1573C3.87242 14.0689 3.87242 9.11568 6.96086 6.02725C10.0493 2.93883 15.0025 2.93883 18.0909 6.02725C21.1211 9.11568 21.1211 14.1271 18.0909 17.1573Z" fill="#F6B900"/>
<path id="Vector_3" d="M6.08789 11.7412L11.3324 12.7901L12.3813 18.0346L16.8101 7.3125L6.08789 11.7412Z" fill="#B34B1E"/>
</g>
</svg>
